#!OML:ASF E:/inclinewalkrobotboard/Project1/Captureday1/Session1/subject1.ASF
:FULLY-SPECIFIED
:DEGREES
101
root 0 0 0 1.2576514039896916 -3.591186562314142 1.899550959283844
lowerback 12.042963239753 0.8481605293769008 -0.10757659146524001
upperback -4.409418733032069 1.0652194929181804 -0.6023719964107744
thorax -11.573015634534821 0.48718639200083114 -0.8027394724279413
lowerneck -5.962158758130021 1.7281776583054536 4.699927504643959
upperneck 18.39373898443062 3.286945467140394 -8.468623111803703
head 6.731605860482235 1.2126613085664046 -3.252931400985476
rclavicle -3.8674833168087373E-16 -2.0995654649010054E-15
rhumerus 20.787399397621463 14.829749508024944 -47.29462042862257
rradius 72.87558011327327
rwrist 27.41852026776862
rhand -34.55933008282804 -57.65182940076673
rfingers 7.12502000000002
rthumb -7.752681027207881 -87.60701585568879
lclavicle -2.236374896735753E-15 4.3012018788210277E-16
lhumerus 21.89074986070581 -13.061188155394523 44.45245895355368
lradius 70.74027102343605
lwrist -22.500479129634314
lhand -45.09546469858037 -70.83703737942967
lfingers 7.125020000000016
lthumb -17.8569347941506 -41.893802695987375
rfemur -25.61467840602395 -2.375797411516392 16.878742506258188
rtibia 54.528950866555114
rfoot -31.33194219020498 -17.850043931696746
rtoes -19.015810144511438
lfemur -27.994619155115004 2.8365485918324684 -18.34763064222811
ltibia 54.797363237143145
lfoot -33.210437471066236 -3.5362594497892372
ltoes -20.639155571849255
102
root 0 0 0 1.2581904587691217 -3.5916710983731472 1.899767926765684
lowerback 12.042905903501037 0.848263464008175 -0.10767089520055806
upperback -4.409474833263896 1.0653031477629542 -0.602460766864022
thorax -11.573037045973635 0.48724250195339214 -0.802744428014764
lowerneck -5.961946731425811 1.7282883281432782 4.699911599110498
upperneck 18.39372857066607 3.287115145613936 -8.468644148854096
head 6.731555989073989 1.2127447404468197 -3.2529048058833405
rclavicle -3.76572052022152E-16 -2.1118536096660566E-15
rhumerus 20.789825810406825 14.833593981126354 -47.29488665501544
rradius 72.87517349425943
rwrist 27.41802140201271
rhand -34.558056372315065 -57.65181234134818
rfingers 7.12502000000002
rthumb -7.751579745481184 -87.60808937333972
lclavicle -2.2009482043842317E-15 4.176052012515344E-16
lhumerus 21.889848331291013 -13.057965713757705 44.45107859569818
lradius 70.73838859116643
lwrist -22.502724441108448
lhand -45.095780616469845 -70.84173905492904
lfingers 7.125020000000016
lthumb -17.857406622497706 -41.89856145903356
rfemur -25.616601602015105 -2.371054219101423 16.876541975692838
rtibia 54.521469037570824
rfoot -31.336975442179966 -17.853727333243523
rtoes -19.029840608247493
lfemur -27.991113305220182 2.833659807995783 -18.344100452648426
ltibia 54.78977061830581
lfoot -33.2175950489778 -3.533277692096704
ltoes -20.65089964548271
103
root 0 0 0 1.2582380657616814 -3.591845370022235 1.8996525853769435
lowerback 12.042867323032478 0.8482883412674889 -0.10761913196281003
upperback -4.409500008892688 1.0653425891380373 -0.602438572649972
thorax -11.573039690879103 0.4872615740807109 -0.8027596228130205
lowerneck -5.961892632522491 1.7283170901402467 4.699912654806858
upperneck 18.393740255838445 3.287156097471872 -8.468676547334512
head 6.731548386020357 1.212758886720346 -3.252910504972327
rclavicle -3.766227064134344E-16 -2.1120949091584896E-15
rhumerus 20.789737025855302 14.833347934747612 -47.29465044098757
rradius 72.87520799953711
rwrist 27.418234438543166
rhand -34.55811627784216 -57.65194521823667
rfingers 7.12502000000002
rthumb -7.751616577061956 -87.60827666976425
lclavicle -2.202559172042301E-15 4.1930888328159846E-16
lhumerus 21.890135598367152 -13.058181938236608 44.45089976916762
lradius 70.7386917378126
lwrist -22.502772922630342
lhand -45.09590406568792 -70.84223266048954
lfingers 7.125020000000016
lthumb -17.857509648803862 -41.89916241152713
rfemur -25.615361061737524 -2.371055679231789 16.876873802978263
rtibia 54.520643170066954
rfoot -31.338428073495937 -17.852942959387462
rtoes -19.033941028652944
lfemur -27.98923225448494 2.83211362467656 -18.342051461053632
ltibia 54.78512844713276
lfoot -33.21835195805047 -3.5324298069127695
ltoes -20.65731360803352
104
root 0 0 0 1.2581828213426856 -3.59181294813241 1.8996096293425402
lowerback 12.042793675896577 0.8483005637549593 -0.1076074054293148
upperback -4.4094976268678385 1.0653583305961105 -0.6024244461833644
thorax -11.572996514783002 0.48726950928110446 -0.8027516407725424
lowerneck -5.961835827311088 1.728351710297429 4.699973484313003
upperneck 18.39380166806366 3.287208433203994 -8.468764178450995
head 6.731557176065565 1.2127783741911946 -3.2529407102463006
rclavicle -3.7779465585261415E-16 -2.1124785740097735E-15
rhumerus 20.7892018299382 14.832602870492257 -47.294136136645946
rradius 72.87480622890928
rwrist 27.418793128361358
rhand -34.55815248305643 -57.652155175731785
rfingers 7.12502000000002
rthumb -7.751659726024094 -87.60841737496281
lclavicle -2.2030933596449624E-15 4.19121140285562E-16
lhumerus 21.890046413255384 -13.05790562470193 44.45077363931631
lradius 70.73856521176353
lwrist -22.50293503672541
lhand -45.09592646513832 -70.84257983501024
lfingers 7.125020000000016
lthumb -17.857534300712096 -41.899536636526975
rfemur -25.61384335370143 -2.3712746505748648 16.876725846042113
rtibia 54.52160281810147
rfoot -31.337289049797896 -17.851631121944422
rtoes -19.036088002719342
lfemur -27.98740349316823 2.8319862748914875 -18.342194818950222
ltibia 54.785488807949164
lfoot -33.2166298058775 -3.5342028286026324
ltoes -20.6590764214526
105
root 0 0 0 1.2581403219200769 -3.591774397418822 1.8996065314488066
lowerback 12.04277147274551 0.8483036725390447 -0.10761021227528444
upperback -4.4094969965353785 1.0653613133739435 -0.602422923717037
thorax -11.572984514785542 0.4872708676164093 -0.8027488709802719
lowerneck -5.961814543099428 1.7283632388391281 4.700003997254211
upperneck 18.39382110751025 3.2872247663917795 -8.468802259484509
head 6.731559157220704 1.212784313781066 -3.2529559670958905
rclavicle -3.779848070851418E-16 -2.112702526665588E-15
rhumerus 20.788844388302373 14.832072151296762 -47.29376051773126
rradius 72.87453206159178
rwrist 27.419200976326238
rhand -34.558163101234754 -57.65226617706659
rfingers 7.12502000000002
rthumb -7.751674064957282 -87.60851282567826
lclavicle -2.2031950920916723E-15 4.189520319500105E-16
lhumerus 21.889979940064713 -13.057646356851317 44.45064900006702
lradius 70.73843570073969
lwrist -22.503115269908903
lhand -45.09590897881962 -70.84281747131644
lfingers 7.125020000000016
lthumb -17.857518523076653 -41.89978815417558
rfemur -25.613230885957684 -2.3714115262477424 16.876627860597242
rtibia 54.522234999589124
rfoot -31.33642178569175 -17.85115206051786
rtoes -19.036415423740365
lfemur -27.986784206819273 2.8321323182519635 -18.342573034788508
ltibia 54.786480461273236
lfoot -33.21585037426072 -3.535186090981
ltoes -20.65913586441598
106
root 0 0 0 1.257640333055209 -3.5911633877549276 1.8995607319608374
lowerback 12.042965218259175 0.8481584387718846 -0.10758093890688891
upperback -4.409417084488516 1.0652161111903105 -0.6023739624864232
thorax -11.573015555033002 0.4871846776472657 -0.8027385130309999
lowerneck -5.962162158906716 1.7281764445155054 4.699931555048862
upperneck 18.393739545175873 3.2869434343734474 -8.468624965178225
head 6.731606677361074 1.2126605498987377 -3.252932966295665
rclavicle -3.8681122381553294E-16 -2.0996128712062785E-15
rhumerus 20.787301345798774 14.829608287308863 -47.29453106427824
rradius 72.87550454206928
rwrist 27.418620098821066
rhand -34.55932981108453 -57.65184352076841
rfingers 7.12502000000002
rthumb -7.752682126519593 -87.60702263599583
lclavicle -2.2364026493265034E-15 4.3009269469108647E-16
lhumerus 21.89071962064947 -13.061113768708536 44.452435695759476
lradius 70.74022496472273
lwrist -22.500523964727385
lhand -45.09545960341478 -70.83709752876749
lfingers 7.125020000000016
lthumb -17.856930350494185 -41.893861849847994
rfemur -25.614687221405042 -2.3758184701210556 16.87870882528323
rtibia 54.529088325140776
rfoot -31.331719032470012 -17.850022850927328
rtoes -19.01558141611254
lfemur -27.994584315920875 2.836660486509898 -18.34781652732577
ltibia 54.79782845399339
lfoot -33.21028542458447 -3.5364823097984615
ltoes -20.63885473690081
107
root 0 0 0 1.2581882204979826 -3.591660758858019 1.899773709978931
lowerback 12.04290936531736 0.8482618177287568 -0.10767291660596423
upperback -4.409474038817242 1.0653007734577533 -0.6024619983404863
thorax -11.57303833435979 0.4872413094085414 -0.8027442006834131
lowerneck -5.961950846464958 1.7282865760077526 4.6999109016282
upperneck 18.393727307052842 3.287112471893071 -8.46864129716278
head 6.7315563878363225 1.2127437616512693 -3.252904127111645
rclavicle -3.7659046681481246E-16 -2.1118609849351045E-15
rhumerus 20.78980154955694 14.833560688400718 -47.29486901606374
rradius 72.87515475954422
rwrist 27.418042062936326
rhand -34.55805559138131 -57.65181133891619
rfingers 7.12502000000002
rthumb -7.751579335649135 -87.60808551125106
lclavicle -2.2009535675090697E-15 4.1760496409834157E-16
lhumerus 21.889838557386 -13.057948856291608 44.4510767285868
lradius 70.73837577746407
lwrist -22.502733017939413
lhand -45.09577919307872 -70.84175028487375
lfingers 7.125020000000016
lthumb -17.857405398943317 -41.89857093907604
rfemur -25.616664869270416 -2.3710536043722357 16.87653329673565
rtibia 54.52148673679528
rfoot -31.3369328639794 -17.853758098506216
rtoes -19.02968320137633
lfemur -27.99114399157363 2.833707481421958 -18.344167858853623
ltibia 54.78993848645777
lfoot -33.21757434608603 -3.5333179393624627
ltoes -20.65073655208493
